<?xml version="1.0" encoding="utf-8"?>
<!-- Generator: Adobe Illustrator 16.0.0, SVG Export Plug-In . SVG Version: 6.00 Build 0)  -->
<!DOCTYPE svg PUBLIC "-//W3C//DTD SVG 1.1//EN" "http://www.w3.org/Graphics/SVG/1.1/DTD/svg11.dtd">
<svg version="1.1" id="Layer_1" xmlns="http://www.w3.org/2000/svg" xmlns:xlink="http://www.w3.org/1999/xlink" x="0px" y="0px"
	 width="25.82px" height="30px" viewBox="0 0 25.82 30" enable-background="new 0 0 25.82 30" xml:space="preserve">
<linearGradient id="SVGID_1_" gradientUnits="userSpaceOnUse" x1="64.9099" y1="761" x2="64.9099" y2="791" gradientTransform="matrix(1 0 0 1 -52 -761)">
	<stop  offset="0" style="stop-color:#CCCCCC"/>
	<stop  offset="1" style="stop-color:#4D4D4D"/>
</linearGradient>
<path fill="url(#SVGID_1_)" d="M25.82,12.91C25.82,5.782,20.041,0,12.911,0C5.784,0,0,5.782,0,12.91
	c0,5.549,3.51,10.268,8.424,12.092L12.91,30l4.485-4.998C22.311,23.18,25.82,18.461,25.82,12.91z"/>
<circle cx="12.911" cy="12.91" r="12.295"/>
<polygon points="19.617,21.428 12.91,28.902 6.204,21.428 "/>
<circle fill="#FFFFFF" cx="12.911" cy="12.911" r="11.065"/>
<rect x="5.403" y="5.796" fill="none" width="15.015" height="14.036"/>
<circle display="none" opacity="0.7" fill="#A48460" enable-background="new    " cx="12.911" cy="12.909" r="12.909"/>
<polygon display="none" opacity="0.7" fill="#A48460" enable-background="new    " points="20.604,21.428 12.91,30 5.217,21.428 "/>
<path display="none" opacity="0.2" enable-background="new    " d="M17.434,10.01l0.008-0.005l-2.236-2.238l-0.639,0.637l1.27,1.27
	c-0.566,0.218-0.971,0.758-0.971,1.402c0,0.83,0.674,1.504,1.504,1.504c0.219,0,0.415-0.049,0.604-0.128v4.337
	c0,0.332-0.272,0.602-0.604,0.602s-0.602-0.27-0.602-0.602v-2.708c0-0.662-0.543-1.205-1.203-1.205h-0.603V8.67
	c0-0.662-0.542-1.204-1.205-1.204H9.151c-0.661,0-1.203,0.542-1.203,1.204v9.624h6.015v-4.512h0.901v3.008
	c0,0.831,0.674,1.504,1.504,1.504c0.832,0,1.504-0.673,1.504-1.504v-5.714C17.873,10.661,17.704,10.281,17.434,10.01z
	 M12.759,11.678H9.151V8.67h3.61v3.008H12.759z M16.369,11.678c-0.332,0-0.602-0.271-0.602-0.602c0-0.332,0.27-0.605,0.602-0.605
	s0.604,0.273,0.604,0.605C16.973,11.406,16.7,11.678,16.369,11.678z"/>
<rect x="2.495" y="8.578" fill="none" width="20.833" height="8.666"/>
<text transform="matrix(1 0 0 1 5.0315 16.3379)" display="none" enable-background="new    " font-family="'Ubuntu-Medium'" font-size="10">WC</text>
<g>
	<path d="M6.911,16.286c0,0.657,0.292,1.254,0.75,1.664v1.336c0,0.409,0.337,0.75,0.75,0.75h0.75c0.411,0,0.75-0.341,0.75-0.75
		v-0.75h6v0.75c0,0.409,0.336,0.75,0.75,0.75h0.75c0.41,0,0.75-0.341,0.75-0.75V17.95c0.457-0.41,0.75-1.007,0.75-1.664v-7.5
		c0-2.625-2.686-3-6-3s-6,0.375-6,3V16.286z"/>
	<circle fill="#FFFFFF" cx="9.536" cy="15.911" r="1.125"/>
	<circle fill="#FFFFFF" cx="16.286" cy="15.911" r="1.125"/>
	<rect x="8.411" y="8.787" fill="#FFFFFF" width="9" height="3.75"/>
</g>
<g display="none">
	
		<linearGradient id="SVGID_2_" gradientUnits="userSpaceOnUse" x1="24.9109" y1="761" x2="24.9109" y2="791" gradientTransform="matrix(1 0 0 1 -52 -761)">
		<stop  offset="0" style="stop-color:#CCCCCC"/>
		<stop  offset="1" style="stop-color:#4D4D4D"/>
	</linearGradient>
	<path display="inline" fill="url(#SVGID_2_)" d="M-14.18,12.91C-14.18,5.782-19.959,0-27.089,0C-34.216,0-40,5.782-40,12.91
		c0,5.549,3.51,10.268,8.424,12.092L-27.09,30l4.485-4.998C-17.689,23.18-14.18,18.461-14.18,12.91z"/>
	<circle display="inline" cx="-27.089" cy="12.91" r="12.295"/>
	<polygon display="inline" points="-20.383,21.428 -27.09,28.902 -33.796,21.428 	"/>
	<circle display="inline" fill="#FFFFFF" cx="-27.089" cy="12.911" r="11.065"/>
	<rect x="-34.597" y="5.796" display="inline" fill="none" width="15.015" height="14.036"/>
	<rect x="-37.505" y="8.578" display="inline" fill="none" width="20.833" height="8.666"/>
	<g display="inline">
		<g>
			<path d="M-31.086,16.166c0,0.436,0.195,0.834,0.5,1.107v0.891c0,0.271,0.224,0.499,0.499,0.499h0.5
				c0.273,0,0.499-0.228,0.499-0.499v-0.498h3.997v0.498c0,0.271,0.224,0.499,0.5,0.499h0.498c0.274,0,0.5-0.228,0.5-0.499v-0.891
				c0.306-0.273,0.5-0.672,0.5-1.107V11.17c0-1.748-1.79-1.999-3.997-1.999c-2.208,0-3.998,0.251-3.998,1.999V16.166z"/>
			<circle fill="#FFFFFF" cx="-29.337" cy="15.916" r="0.749"/>
			<circle fill="#FFFFFF" cx="-24.841" cy="15.916" r="0.749"/>
			<rect x="-30.087" y="11.17" fill="#FFFFFF" width="5.994" height="2.498"/>
		</g>
		<rect x="-22.091" y="9.248" width="1.001" height="9.307"/>
		<rect x="-33.088" y="9.248" width="1.001" height="9.307"/>
		<rect x="-34.089" y="7.159" width="14" height="1.002"/>
	</g>
</g>
</svg>
