<?xml version="1.0" encoding="utf-8"?>
<!-- Generator: Adobe Illustrator 16.0.0, SVG Export Plug-In . SVG Version: 6.00 Build 0)  -->
<!DOCTYPE svg PUBLIC "-//W3C//DTD SVG 1.1//EN" "http://www.w3.org/Graphics/SVG/1.1/DTD/svg11.dtd">
<svg version="1.1" id="Layer_1" xmlns="http://www.w3.org/2000/svg" xmlns:xlink="http://www.w3.org/1999/xlink" x="0px" y="0px"
	 width="25.82px" height="25.443px" viewBox="0 0 25.82 25.443" enable-background="new 0 0 25.82 25.443" xml:space="preserve">
<rect x="7.493" y="15.538" transform="matrix(0.7967 0.6044 -0.6044 0.7967 12.9165 -4.3415)" display="none" fill="#FFFFFF" width="10.835" height="2.978"/>
<g>
	<path fill="#FF6C52" d="M4.163,19.184c-0.843,0.321-1.635,0.746-2.317,1.364C1.194,21.13,0.61,21.785,0,22.409
		c0.59,0.429,3.598,2.609,4.191,3.035c0.643-0.851,1.483-1.405,2.511-1.683c0.655-0.178,1.311-0.35,1.965-0.521
		c0.202-0.053,0.401-0.116,0.599-0.186L4.163,19.184z"/>
	<path fill="#FF6C52" d="M13.81,4.007c-1.635,1.399-2.781,3.054-3.267,5.039l4.912,3.727c-0.012-0.268-0.025-0.536-0.031-0.804
		c-0.019-0.83,0.016-1.641,0.398-2.421c0.541-1.102,1.358-1.789,2.377-2.211L13.81,4.007z"/>
	<path fill="#FF6C52" d="M21.647,0c-0.54,0.687-1.146,1.294-2.009,1.558c-0.651,0.199-1.307,0.378-1.965,0.547
		c-0.352,0.09-0.696,0.194-1.035,0.309l5.086,3.859c0.424-0.171,0.841-0.362,1.239-0.601c1.094-0.654,1.983-1.515,2.744-2.572
		C25.111,2.667,22.211,0.408,21.647,0z"/>
	<path fill="#FF6C52" d="M10.315,12.61c0.024,0.5,0.05,1.002,0.054,1.502c0.02,1.785-1.074,3.367-2.675,4.014l4.375,3.319
		c1.565-1.309,2.741-3.119,3.206-5.072L10.315,12.61z"/>
</g>
</svg>
