<?xml version="1.0" encoding="utf-8"?>
<!-- Generator: Adobe Illustrator 16.0.0, SVG Export Plug-In . SVG Version: 6.00 Build 0)  -->
<!DOCTYPE svg PUBLIC "-//W3C//DTD SVG 1.1//EN" "http://www.w3.org/Graphics/SVG/1.1/DTD/svg11.dtd">
<svg version="1.1" id="Layer_1" xmlns="http://www.w3.org/2000/svg" xmlns:xlink="http://www.w3.org/1999/xlink" x="0px" y="0px"
	 width="26px" height="26px" viewBox="0 0 26 26" enable-background="new 0 0 26 26" xml:space="preserve">
<text transform="matrix(1 0 0 1 6.9048 16.2744)" display="none" enable-background="new    " font-family="'Ubuntu-Medium'" font-size="15.6371">P</text>
<text transform="matrix(1 0 0 1 6.8218 16.2744)" display="none" enable-background="new    " font-family="'Ubuntu-Medium'" font-size="15.6371">E</text>
<g display="none">
	<path display="inline" d="M11.208,5.438c1.573,0,2.782,0.287,3.626,0.86c0.838,0.571,1.258,1.47,1.258,2.688
		c0,0.638-0.113,1.182-0.336,1.635c-0.225,0.451-0.551,0.826-0.979,1.111c-0.432,0.281-0.947,0.496-1.566,0.629
		c-0.613,0.135-1.319,0.207-2.106,0.207H10.12v3.817H8.145V5.704C8.601,5.6,9.113,5.53,9.666,5.493
		C10.229,5.457,10.741,5.438,11.208,5.438z M11.35,7.142c-0.505,0-0.916,0.016-1.235,0.048v3.691h0.954
		c0.948,0,1.68-0.133,2.189-0.4c0.51-0.265,0.766-0.769,0.766-1.508c0-0.355-0.069-0.652-0.209-0.893
		c-0.131-0.24-0.319-0.427-0.559-0.563c-0.24-0.136-0.525-0.232-0.852-0.291C12.079,7.172,11.725,7.142,11.35,7.142z"/>
</g>
<g>
	<path fill="#FFFFFF" d="M13,0C5.824,0,0,5.825,0,13c0,7.178,5.824,13,13,13c7.178,0,13-5.822,13-13C26,5.825,20.178,0,13,0z"/>
	<path fill="#00AEE4" d="M13,1.3C6.542,1.3,1.3,6.543,1.3,13c0,6.46,5.242,11.7,11.7,11.7c6.46,0,11.699-5.24,11.699-11.7
		C24.699,6.543,19.46,1.3,13,1.3z"/>
	<rect x="11.701" y="11.701" fill="#FFFFFF" width="2.599" height="7.798"/>
	<rect x="11.701" y="6.5" fill="#FFFFFF" width="2.599" height="2.601"/>
</g>
</svg>
