<?xml version="1.0" encoding="utf-8"?>
<!-- Generator: Adobe Illustrator 16.0.0, SVG Export Plug-In . SVG Version: 6.00 Build 0)  -->
<!DOCTYPE svg PUBLIC "-//W3C//DTD SVG 1.1//EN" "http://www.w3.org/Graphics/SVG/1.1/DTD/svg11.dtd">
<svg version="1.1" id="Layer_1" xmlns="http://www.w3.org/2000/svg" xmlns:xlink="http://www.w3.org/1999/xlink" x="0px" y="0px"
	 width="25.82px" height="30px" viewBox="0 0 25.82 30" enable-background="new 0 0 25.82 30" xml:space="preserve">
<g>
	
		<linearGradient id="SVGID_1_" gradientUnits="userSpaceOnUse" x1="-45.0901" y1="874.3499" x2="-45.0901" y2="904.3499" gradientTransform="matrix(1 0 0 1 58 -874.3496)">
		<stop  offset="0" style="stop-color:#CCCCCC"/>
		<stop  offset="1" style="stop-color:#4D4D4D"/>
	</linearGradient>
	<path fill="url(#SVGID_1_)" d="M25.821,12.91C25.821,5.782,20.039,0,12.91,0C5.783,0,0,5.781,0,12.91
		c0,5.549,3.51,10.269,8.424,12.092L12.908,30l4.486-4.998C22.311,23.181,25.821,18.462,25.821,12.91z"/>
	<circle fill="#ED1C24" cx="12.91" cy="12.911" r="12.295"/>
	<polygon fill="#ED1C24" points="19.617,21.429 12.908,28.902 6.203,21.429 	"/>
	<circle fill="#FFFFFF" cx="12.91" cy="12.911" r="11.064"/>
	<rect x="5.403" y="5.797" fill="none" width="15.016" height="14.036"/>
	<g>
		<path d="M12.4,7.094c1.573,0,2.782,0.287,3.626,0.86c0.838,0.571,1.258,1.47,1.258,2.688c0,0.638-0.113,1.182-0.336,1.635
			c-0.225,0.451-0.551,0.826-0.979,1.111c-0.432,0.281-0.947,0.496-1.566,0.629c-0.613,0.135-1.319,0.207-2.106,0.207h-0.985v3.817
			H9.336V7.361c0.456-0.104,0.968-0.175,1.521-0.211C11.42,7.114,11.933,7.094,12.4,7.094z M12.541,8.798
			c-0.505,0-0.916,0.016-1.235,0.048v3.691h0.954c0.948,0,1.68-0.133,2.189-0.4c0.51-0.265,0.766-0.769,0.766-1.508
			c0-0.355-0.07-0.652-0.209-0.893c-0.131-0.24-0.32-0.427-0.559-0.563c-0.24-0.136-0.525-0.232-0.852-0.291
			C13.271,8.828,12.916,8.798,12.541,8.798z"/>
	</g>
</g>
</svg>
