<?xml version="1.0" encoding="utf-8"?>
<!-- Generator: Adobe Illustrator 16.0.0, SVG Export Plug-In . SVG Version: 6.00 Build 0)  -->
<!DOCTYPE svg PUBLIC "-//W3C//DTD SVG 1.1//EN" "http://www.w3.org/Graphics/SVG/1.1/DTD/svg11.dtd">
<svg version="1.1" id="Layer_1" xmlns="http://www.w3.org/2000/svg" xmlns:xlink="http://www.w3.org/1999/xlink" x="0px" y="0px"
	 width="25.82px" height="25.443px" viewBox="0 0 25.82 25.443" enable-background="new 0 0 25.82 25.443" xml:space="preserve">
<rect x="7.493" y="15.538" transform="matrix(-0.7967 -0.6044 0.6044 -0.7967 12.9062 38.3956)" display="none" fill="#FFFFFF" width="10.836" height="2.979"/>
<g>
	<path fill="#FF6C52" d="M3.609,17.034c-0.73,0.284-1.417,0.662-2.008,1.21C1.035,18.761,0.529,19.343,0,19.896
		c0.511,0.382,3.12,2.317,3.634,2.696c0.557-0.757,1.285-1.249,2.176-1.496c0.568-0.157,1.137-0.31,1.704-0.462
		c0.175-0.047,0.348-0.103,0.52-0.164L3.609,17.034z"/>
	<path fill="#FF6C52" d="M11.972,3.557C10.554,4.8,9.561,6.27,9.14,8.032l4.258,3.31c-0.01-0.239-0.021-0.476-0.027-0.715
		c-0.016-0.736,0.014-1.457,0.345-2.149c0.469-0.978,1.178-1.588,2.061-1.963L11.972,3.557z"/>
	<path fill="#FF6C52" d="M18.766,0c-0.468,0.611-0.994,1.149-1.741,1.384c-0.564,0.176-1.134,0.335-1.704,0.485
		c-0.305,0.08-0.603,0.172-0.896,0.274l4.409,3.427c0.367-0.152,0.729-0.322,1.073-0.534c0.949-0.58,1.72-1.345,2.379-2.283
		C21.769,2.368,19.255,0.363,18.766,0z"/>
	<path fill="#FF6C52" d="M8.943,11.197c0.02,0.444,0.043,0.89,0.046,1.333c0.018,1.586-0.931,2.989-2.319,3.563l3.793,2.948
		c1.356-1.163,2.376-2.77,2.779-4.504L8.943,11.197z"/>
</g>
<g>
	<path fill="#00599C" d="M7.076,19.698c-0.73,0.283-1.417,0.662-2.008,1.21c-0.566,0.517-1.072,1.098-1.601,1.653
		c0.511,0.379,3.12,2.316,3.634,2.694c0.557-0.756,1.285-1.248,2.176-1.494c0.568-0.158,1.137-0.312,1.704-0.463
		c0.175-0.047,0.348-0.104,0.52-0.165L7.076,19.698z"/>
	<path fill="#00599C" d="M15.44,6.221c-1.418,1.243-2.411,2.712-2.833,4.475l4.258,3.309c-0.01-0.238-0.021-0.476-0.027-0.715
		c-0.016-0.735,0.015-1.457,0.346-2.148c0.469-0.978,1.178-1.589,2.061-1.963L15.44,6.221z"/>
	<path fill="#00599C" d="M22.234,2.663c-0.468,0.61-0.994,1.149-1.741,1.384c-0.564,0.176-1.134,0.335-1.704,0.485
		c-0.305,0.08-0.604,0.172-0.896,0.274l4.409,3.427c0.367-0.152,0.729-0.321,1.073-0.534c0.949-0.58,1.72-1.345,2.379-2.284
		C25.237,5.032,22.722,3.026,22.234,2.663z"/>
	<path fill="#00599C" d="M12.41,13.86c0.02,0.444,0.043,0.89,0.046,1.334c0.018,1.585-0.931,2.989-2.319,3.563l3.792,2.946
		c1.356-1.162,2.377-2.77,2.779-4.504L12.41,13.86z"/>
</g>
</svg>
